<svg xmlns="http://www.w3.org/2000/svg" viewBox="0 0 126.231 74"><path fill="#f49d37" d="M124.334 24.08a.99.99 0 0 0-1.8-.076 10.916 10.916 0 0 1-9.543 5.57h-5.094a12.226 12.226 0 0 0-12.222 12.218 12.587 12.587 0 0 0 .1 1.305c4.061-2.909 9.924-5.379 18.238-5.379a1.019 1.019 0 0 1 0 2.037c-16 0-22.79 9.81-24.292 13.5a2.04 2.04 0 0 0 3.775 1.547 16.748 16.748 0 0 1 4.572-5.772 12.2 12.2 0 0 0 11.134 4.914c9.994-.726 17.029-9.689 17.029-20.664a23.149 23.149 0 0 0-1.897-9.2Z"/><text fill="#21a179" font-family="SpaceMono-Italic, Space Mono" font-size="50" font-style="italic" transform="translate(-137 -50) translate(140 106)"><tspan x="0" y="0">Ada</tspan></text></svg>