<svg xmlns="http://www.w3.org/2000/svg" width="125.331" height="36.4" viewBox="0 0 125.331 36.4"><g transform="translate(-137.9 -70.3)"><path d="M34.822.6a.99.99,0,0,0-1.8-.076,10.916,10.916,0,0,1-9.543,5.57H18.385A12.226,12.226,0,0,0,6.163,18.312a12.587,12.587,0,0,0,.1,1.305c4.061-2.909,9.924-5.379,18.238-5.379a1.019,1.019,0,0,1,0,2.037c-16,0-22.79,9.81-24.292,13.5a2.04,2.04,0,0,0,3.775,1.547A16.748,16.748,0,0,1,8.556,25.55,12.2,12.2,0,0,0,19.69,30.464c9.994-.726,17.029-9.689,17.029-20.664A23.149,23.149,0,0,0,34.822.6Z" transform="translate(226.512 73.48)" fill="#f49d37"/><path d="M20.95-8.7H6.9L2.65,0H-2.1L15.25-35h8l2.5,35H21.5ZM8.8-12.6H20.7L19.4-33.15h-.6ZM48.15-3.9a8.645,8.645,0,0,1-3.8,3.625A11.35,11.35,0,0,1,39.7.7,9.254,9.254,0,0,1,36.05,0a7.838,7.838,0,0,1-2.8-1.975,9.147,9.147,0,0,1-1.8-3.1A11.924,11.924,0,0,1,30.8-9.1a19.618,19.618,0,0,1,.95-6.05A16.782,16.782,0,0,1,34.5-20.4a13.792,13.792,0,0,1,4.425-3.7,12.607,12.607,0,0,1,6.025-1.4,8.258,8.258,0,0,1,4.425,1.1A5.64,5.64,0,0,1,51.8-20.9h.6l3.1-14.8h3.9L52.7-4.2q-.15.9.65.9A1.143,1.143,0,0,0,54-3.55l1.8-1.3L57.95-1.9,55.7-.2a4.678,4.678,0,0,1-1.325.65A5.6,5.6,0,0,1,52.65.7,5.252,5.252,0,0,1,51.2.5a3.954,3.954,0,0,1-1.275-.625A3.141,3.141,0,0,1,49-1.225,3.612,3.612,0,0,1,48.65-2.9q0-.25.025-.5t.075-.5ZM40.9-3a8.353,8.353,0,0,0,3.825-.925,10.374,10.374,0,0,0,3.2-2.525A12.177,12.177,0,0,0,50.1-10.225a13.586,13.586,0,0,0,.8-4.725,7.56,7.56,0,0,0-1.55-4.975,5.5,5.5,0,0,0-4.5-1.875,8.379,8.379,0,0,0-4.175,1.025,10.316,10.316,0,0,0-3.125,2.7A11.987,11.987,0,0,0,35.575-14.2,15.424,15.424,0,0,0,34.9-9.65Q34.9-3,40.9-3Zm37.65-.9A8.5,8.5,0,0,1,74.875-.275,10.607,10.607,0,0,1,70.4.7a8.628,8.628,0,0,1-3.6-.725A7.588,7.588,0,0,1,64.1-2.05a9.247,9.247,0,0,1-1.7-3.125A12.83,12.83,0,0,1,61.8-9.2a20.787,20.787,0,0,1,.9-6.1,16.252,16.252,0,0,1,2.625-5.2A13.23,13.23,0,0,1,69.6-24.125,12.24,12.24,0,0,1,75.5-25.5a7.784,7.784,0,0,1,4.35,1.175A5.466,5.466,0,0,1,82.2-20.9h.6l.8-3.9h3.9L83.1-4.2a.737.737,0,0,0,.1.675.7.7,0,0,0,.55.225,1.2,1.2,0,0,0,.7-.25l1.8-1.3,2.1,2.95L86.1-.2a4.584,4.584,0,0,1-1.375.65A5.746,5.746,0,0,1,83.05.7,5.252,5.252,0,0,1,81.6.5a3.954,3.954,0,0,1-1.275-.625,3.141,3.141,0,0,1-.925-1.1A3.612,3.612,0,0,1,79.05-2.9q0-.25.025-.5t.075-.5ZM71.6-3a8.053,8.053,0,0,0,3.775-.925,10,10,0,0,0,3.1-2.525,11.971,11.971,0,0,0,2.075-3.775,14.4,14.4,0,0,0,.75-4.725,8.117,8.117,0,0,0-1.4-4.975A5.074,5.074,0,0,0,75.55-21.8a8.262,8.262,0,0,0-4.125,1A9.66,9.66,0,0,0,68.4-18.125a11.8,11.8,0,0,0-1.875,3.875A16.569,16.569,0,0,0,65.9-9.7a7.52,7.52,0,0,0,1.45,5A5.276,5.276,0,0,0,71.6-3Z" transform="translate(140 106)" fill="#fff"/></g></svg>